<svg ed:vSpacing="30" xmlns:ev="http://www.w3.org/2001/xml-events" viewBox="0 0 1070 514" id="page100" ed:name="页面-1" xmlns:xlink="http://www.w3.org/1999/xlink" width="1070" ed:hSpacing="30" xmlns:ed="https://www.edrawsoft.cn/xml/2017/SVGExtensions/" xmlns="http://www.w3.org/2000/svg" height="514"><style type="text/css"><![CDATA[
g[ed\:togtopicid],g[ed\:hyperlink],g[ed\:comment],g[ed\:note] {cursor:pointer;}
g[id] {-moz-user-select: none;-ms-user-select: none;user-select: none;}
svg text::selection,svg tspan::selection{background-color: #4285f4;color: #ffffff;fill: #ffffff;}
.st6 {fill:#454545;font-family:等线;font-size:12pt;font-weight:bold}
.st5 {fill:#454545;font-family:等线;font-size:14pt;font-weight:bold}
.st4 {fill:#454545;font-family:等线;font-size:18pt;font-weight:bold}
]]></style><defs/><rect x="0" width="1070" fill="#ffffff" y="0" height="514"/><path stroke="#83c7ad" stroke-width="2" id="130" ed:type="boundary" stroke-linejoin="round" ed:parentid="104,106" fill="#ffffff" fill-opacity="0.2" d="M25,0L0,96.8L0,155L518.5,155L518.5,0L25,0z" transform="matrix(1,0,0,1,529,156)" ed:idlist="104,116,118,106" stroke-dasharray="3.8,1.2"/><g id="114" ed:type="relation" ed:toid="110" transform="matrix(1,0,0,1,177.28,304)" ed:fromid="108"><path d="M-75.6,0C-58.6,61.3,71.1,41.7,75.6,0" fill="none"/><path stroke="#35b58f" stroke-width="2" stroke-linejoin="round" d="M-75.6,0C-59.7,57.3,54.7,43.9,73.2,7.9" fill="none" stroke-linecap="round" stroke-dasharray="6,4"/><path stroke="#35b58f" stroke-width="1" fill="#35b58f" d="M75.6,0L67.3,7.7C69.2,7.3,71.2,7.3,73.2,7.9C75.2,8.5,76.9,9.6,78.2,11L75.6,0" stroke-linecap="round"/></g><g id="115" ed:type="relation" ed:toid="112" transform="matrix(1,0,0,1,338.83,304)" ed:fromid="110"><path d="M-74.7,0C-51.7,49.5,58.5,61.1,74.7,0" fill="none"/><path stroke="#35b58f" stroke-width="2" stroke-linejoin="round" d="M-74.7,0C-52.7,47.3,48.8,60,72,7.8" fill="none" stroke-linecap="round" stroke-dasharray="6,4"/><path stroke="#35b58f" stroke-width="1" fill="#35b58f" d="M74.7,0L66.2,7.4C68.1,7,70.1,7.1,72,7.8C74,8.5,75.6,9.7,76.8,11.1L74.7,0" stroke-linecap="round"/></g><g id="120" ed:type="relation" ed:toid="118" transform="matrix(1,0,0,1,667.19,304)" ed:fromid="116"><path d="M-64.5,0C-47.2,61.7,63.4,24.9,64.5,0" fill="none"/><path stroke="#35b58f" stroke-width="2" stroke-linejoin="round" d="M-64.5,0C-48.8,55.7,42.8,31.1,61.2,7.5" fill="none" stroke-linecap="round" stroke-dasharray="6,4"/><path stroke="#35b58f" stroke-width="1" fill="#35b58f" d="M64.5,0L55.4,6.8C57.3,6.5,59.3,6.8,61.2,7.6C63.1,8.4,64.6,9.7,65.8,11.2L64.5,0" stroke-linecap="round"/></g><g id="138" ed:type="relation" ed:toid="135" transform="matrix(1,0,0,1,801.03,371.54)" ed:fromid="130"><path d="M-7.1,-60.5C-4.5,-25.5,54.7,17.5,7.1,60.5" fill="none"/><path stroke="#35b58f" stroke-width="2" stroke-linejoin="round" d="M-7.1,-60.5C-4.6,-27.1,49.5,13.6,12.9,54.7" fill="none" stroke-linecap="round" stroke-dasharray="6,4"/><path stroke="#35b58f" stroke-width="1" fill="#35b58f" d="M7.1,60.5L18,57.6C16.2,57.1,14.4,56.1,12.9,54.7C11.5,53.2,10.5,51.5,10,49.6L7.1,60.5" stroke-linecap="round"/></g><path stroke="#454545" stroke-width="3" id="103" ed:tosuperid="102" stroke-linejoin="round" ed:parentid="101" d="M137.1,-30L137.1,-4.3L-131.1,-4.3C-134.4,-4.3,-137.1,-1.6,-137.1,1.7L-137.1,30" fill="none" stroke-linecap="round" transform="matrix(1,0,0,1,397.13,133)"/><path stroke="#454545" stroke-width="3" id="105" ed:tosuperid="104" stroke-linejoin="round" ed:parentid="101" d="M-65.1,-30L-65.1,-4.3L59.1,-4.3C62.4,-4.3,65.1,-1.6,65.1,1.7L65.1,30" fill="none" stroke-linecap="round" transform="matrix(1,0,0,1,599.38,133)"/><path stroke="#454545" stroke-width="3" id="107" ed:tosuperid="106" stroke-linejoin="round" ed:parentid="101" d="M-198.8,-30L-198.8,-4.3L192.8,-4.3C196.1,-4.3,198.8,-1.6,198.8,1.7L198.8,30" fill="none" stroke-linecap="round" transform="matrix(1,0,0,1,733,133)"/><path stroke="#454545" id="109" ed:tosuperid="108" stroke-linejoin="round" ed:parentid="102" d="M81.9,-22.5L81.9,-1.3L-75.9,-1.3C-79.2,-1.3,-81.9,1.4,-81.9,4.7L-81.9,22.5" fill="none" stroke-linecap="round" transform="matrix(1,0,0,1,178.13,242.5)"/><path stroke="#454545" id="111" ed:tosuperid="110" stroke-linejoin="round" ed:parentid="102" d="M2.5,-1.3C-0.3,-1.3,-2.5,1.4,-2.5,4.7L-2.5,22.5" fill="none" stroke-linecap="round" transform="matrix(1,0,0,1,257.5,242.5)"/><path stroke="#454545" id="113" ed:tosuperid="112" stroke-linejoin="round" ed:parentid="102" d="M-79.4,-1.3L73.4,-1.3C76.7,-1.3,79.4,1.4,79.4,4.7L79.4,22.5" fill="none" stroke-linecap="round" transform="matrix(1,0,0,1,339.38,242.5)"/><path stroke="#454545" id="117" ed:tosuperid="116" stroke-linejoin="round" ed:parentid="104" d="M33.6,-22.5L33.6,-1.3L-27.6,-1.3C-30.9,-1.3,-33.6,1.4,-33.6,4.7L-33.6,22.5" fill="none" stroke-linecap="round" transform="matrix(1,0,0,1,630.88,242.5)"/><path stroke="#454545" id="119" ed:tosuperid="118" stroke-linejoin="round" ed:parentid="104" d="M-34,-1.3L28,-1.3C31.3,-1.3,34,1.4,34,4.7L34,22.5" fill="none" stroke-linecap="round" transform="matrix(1,0,0,1,698.5,242.5)"/><path stroke="#454545" id="140" ed:tosuperid="139" stroke-linejoin="round" ed:parentid="135" d="M21.6,14.3L10.6,14.3C-5.7,-14.3,-5.7,-14.3,-21.6,-14.3" fill="none" stroke-linecap="round" transform="matrix(1,0,0,1,641.02,446.34)"/><path stroke="#454545" id="142" ed:tosuperid="141" stroke-linejoin="round" ed:parentid="135" d="M10.6,0C-5.7,0,-5.7,0,-21.6,0" fill="none" stroke-linecap="round" transform="matrix(1,0,0,1,641.02,460.59)"/><path stroke="#454545" id="144" ed:tosuperid="143" stroke-linejoin="round" ed:parentid="135" d="M10.6,-14.3C-5.7,14.3,-5.7,14.3,-21.6,14.3" fill="none" stroke-linecap="round" transform="matrix(1,0,0,1,641.02,474.84)"/><g ed:height="82" ed:layout="bottom" ed:width="138" id="101" ed:topictype="mainidea" transform="matrix(1,0,0,1,465.25,21)"><path stroke="#454545" stroke-width="3" stroke-linejoin="round" d="M0,0L138,0L138,82L0,82L0,0z" fill="none"/><text class="st4"><tspan x="21" style="white-space:pre" y="34.9">Problem</tspan><tspan x="24" style="white-space:pre" y="59.9">Analysis</tspan></text></g><g ed:height="57" ed:width="164" id="102" ed:parentid="101" transform="matrix(1,0,0,1,178,163)"><path stroke="#454545" stroke-width="3" stroke-linejoin="round" d="M0,0L164,0L164,57L0,57L0,0z" fill="none"/><text class="st5"><tspan x="19" style="white-space:pre" y="23.4">Lotka-Volterra</tspan><tspan x="20" style="white-space:pre" y="42.9">Growth Model</tspan></text></g><g ed:height="57" ed:width="207" id="104" ed:parentid="101" transform="matrix(1,0,0,1,561,163)"><path stroke="#454545" stroke-width="3" stroke-linejoin="round" d="M0,0L207,0L207,57L0,57L0,0z" fill="none"/><text class="st5"><tspan x="44" style="white-space:pre" y="23.4">Markov Chain</tspan><tspan x="19" style="white-space:pre" y="42.9">Homeostasis Model</tspan></text></g><g ed:height="57" ed:width="217.5" id="106" ed:parentid="101" transform="matrix(1,0,0,1,823,163)"><path stroke="#454545" stroke-width="3" stroke-linejoin="round" d="M0,0L217.5,0L217.5,57L0,57L0,0z" fill="none"/><text class="st5"><tspan x="19" style="white-space:pre" y="23.4">Vitality-Environment</tspan><tspan x="81" style="white-space:pre" y="42.9">Model</tspan></text></g><g ed:height="39" ed:width="150.5" id="108" ed:parentid="102" transform="matrix(1,0,0,1,21,265)"><path stroke="#454545" stroke-linejoin="round" d="M0,0L150.5,0L150.5,39L0,39L0,0z" fill="none"/><text class="st6"><tspan x="27" style="white-space:pre" y="15.4">Dual-Species</tspan><tspan x="9" style="white-space:pre" y="31.9">Traditional Model</tspan></text></g><g ed:height="39" ed:width="140" id="110" ed:parentid="102" transform="matrix(1,0,0,1,185,265)"><path stroke="#454545" stroke-linejoin="round" d="M0,0L140,0L140,39L0,39L0,0z" fill="none"/><text class="st6"><tspan x="19" style="white-space:pre" y="15.4">Multi-Species</tspan><tspan x="9" style="white-space:pre" y="31.9">Extended Model</tspan></text></g><g ed:height="39" ed:width="160.5" id="112" ed:parentid="102" transform="matrix(1,0,0,1,338.5,265)"><path stroke="#454545" stroke-linejoin="round" d="M0,0L160.5,0L160.5,39L0,39L0,0z" fill="none"/><text class="st6"><tspan x="29" style="white-space:pre" y="15.4">Multi-Species</tspan><tspan x="9" style="white-space:pre" y="31.9">Numerical Solution</tspan></text></g><g ed:height="39" ed:width="122.5" id="116" ed:parentid="104" transform="matrix(1,0,0,1,536,265)"><path stroke="#454545" stroke-linejoin="round" d="M0,0L122.5,0L122.5,39L0,39L0,0z" fill="none"/><text class="st6"><tspan x="10" style="white-space:pre" y="15.4">Multi-Species</tspan><tspan x="9" style="white-space:pre" y="31.9">Markov Chain</tspan></text></g><g ed:height="39" ed:width="121" id="118" ed:parentid="104" transform="matrix(1,0,0,1,672,265)"><path stroke="#454545" stroke-linejoin="round" d="M0,0L121,0L121,39L0,39L0,0z" fill="none"/><text class="st6"><tspan x="9" style="white-space:pre" y="15.4">Multi-Species</tspan><tspan x="13" style="white-space:pre" y="31.9">Homeostasis</tspan></text></g><g ed:height="57" ed:layout="leftmap" ed:width="228" id="135" ed:topictype="floating" transform="matrix(1,0,0,1,662.62,432.09)"><path stroke="#35b58f" stroke-width="3" stroke-linejoin="round" d="M4,0L224,0C226.7,0,228,1.3,228,4L228,53C228,55.7,226.7,57,224,57L4,57C1.3,57,0,55.7,0,53L0,4C0,1.3,1.3,0,4,0z" fill="none"/><text class="st5"><tspan x="36" style="white-space:pre" y="23.4">Combined Fungus</tspan><tspan x="19" style="white-space:pre" y="42.9">Decomposition Model</tspan></text></g><g ed:height="22" ed:width="213" id="139" ed:parentid="135" transform="matrix(1,0,0,1,406.42,410.09)"><path stroke="#454545" stroke-linejoin="round" d="M0,22L213,22" fill="none"/><text class="st6"><tspan x="8" style="white-space:pre" y="15.1">Environmental change test</tspan></text></g><g ed:height="22" ed:width="183" id="141" ed:parentid="135" transform="matrix(1,0,0,1,436.42,438.59)"><path stroke="#454545" stroke-linejoin="round" d="M0,22L183,22" fill="none"/><text class="st6"><tspan x="8" style="white-space:pre" y="15.1">Efficiency optimization</tspan></text></g><g ed:height="22" ed:width="133.5" id="143" ed:parentid="135" transform="matrix(1,0,0,1,485.92,467.09)"><path stroke="#454545" stroke-linejoin="round" d="M0,22L133.5,22" fill="none"/><text class="st6"><tspan x="8" style="white-space:pre" y="15.1">Habitat analysis</tspan></text></g></svg>